<?xml version="1.0" standalone="no"?>
<!DOCTYPE svg PUBLIC "-//W3C//DTD SVG 20010904//EN"
 "http://www.w3.org/TR/2001/REC-SVG-20010904/DTD/svg10.dtd">
<svg version="1.0" xmlns="http://www.w3.org/2000/svg"
 width="512.000000pt" height="512.000000pt" viewBox="0 0 512.000000 512.000000"
 preserveAspectRatio="xMidYMid meet">

<g transform="translate(0.000000,512.000000) scale(0.100000,-0.100000)"
fill="#000000" stroke="none">
<path d="M1654 4403 l-239 -246 -305 -150 c-168 -83 -306 -151 -307 -152 -2
-1 -25 -155 -52 -343 l-50 -342 -157 -297 c-87 -163 -157 -301 -157 -307 0
-10 201 -399 257 -498 l20 -36 -27 -28 c-15 -14 -27 -37 -27 -49 0 -34 37 -75
68 -75 15 1 426 139 914 308 l886 307 37 48 c20 26 32 47 28 47 -4 0 -115 -32
-246 -72 -199 -60 -240 -69 -248 -57 -15 24 -10 181 7 240 66 220 245 372 470
395 242 25 491 -147 557 -386 39 -139 29 -247 -34 -379 -51 -105 -136 -192
-236 -242 -37 -19 -69 -34 -70 -35 -2 0 9 -34 23 -76 l25 -75 424 -409 c233
-225 442 -435 465 -466 l40 -57 312 153 313 152 48 340 49 339 159 301 c87
166 159 305 159 309 0 5 -72 144 -159 310 l-160 301 -48 339 -48 339 -310 152
-310 152 -75 79 c-41 43 -148 153 -238 246 l-164 167 -338 -59 -339 -59 -338
59 c-186 32 -339 59 -339 59 -1 0 -109 -111 -240 -247z"/>
<path d="M2720 2648 c-57 -17 -69 -25 -92 -61 -15 -23 -26 -43 -24 -44 1 -2
49 13 107 32 107 36 138 57 118 82 -15 17 -31 16 -109 -9z"/>
</g>
</svg>
