<svg xmlns="http://www.w3.org/2000/svg" viewBox="0 0 118.16 43.25"><defs><style>.cls-1{fill:#108bc9;}</style></defs><g id="Warstwa_2" data-name="Warstwa 2"><g id="_1" data-name="1"><path id="cars" class="cls-1" d="M117.38,21.87a.82.82,0,0,0,.77-.91L118,20a1.16,1.16,0,0,0-1-1l-2.47-.35a1.16,1.16,0,0,0-1.29,1.15v1a.14.14,0,0,1-.11.14h-.06c0,.07-.21.14-.6.21l-.74-1.61-3.26-8.27a2,2,0,0,0-.48-.79c-.54-.54-1.22-1.22-13.29-1.22S82,9.92,81.44,10.46a2,2,0,0,0-.48.79l-4,9.88c-.42-.06-.64-.14-.64-.21H76.3a.14.14,0,0,1-.11-.13v-1A1.16,1.16,0,0,0,74.9,18.6l-2.47.35a1.16,1.16,0,0,0-1,1l-.11,1a.83.83,0,0,0,.19.62.82.82,0,0,0,.58.29l3.29.21a.22.22,0,0,1,.18.12.21.21,0,0,1,0,.22l-2.59,3.52a3.61,3.61,0,0,0-.7,2.14l8.83.09c1,.05,2.51,4.12,2.27,4.58a.56.56,0,0,1-.52.29l-10.57-.35,1,9.28a1.37,1.37,0,0,0,1.36,1.29H79.7A1.36,1.36,0,0,0,81.06,42l.28-2.34h26.8l.28,2.34a1.36,1.36,0,0,0,1.36,1.21h5.11A1.36,1.36,0,0,0,116.24,42l1-9.28L106.64,33a.56.56,0,0,1-.52-.29c-.24-.45,1.29-4.52,2.27-4.58l8.83-.09a3.61,3.61,0,0,0-.7-2.14l-2.59-3.52a.22.22,0,0,1,.16-.35Zm-33.7-9c1.43-.19,5.5-.38,11-.38s9.61.2,11,.38l2,6.27c-2.42.1-7.21.18-13,.18s-10.59-.08-13-.18ZM68.76,25.78,67.24,23,48.9,20.66,38.79,12.49a7,7,0,0,0-4.7-1.66l-12,0c-3.46,0-4,.77-5,1.45s-7.7,6.86-7.7,6.86L.74,20.8,0,23,1.65,34.78l5.23,1.74a8.23,8.23,0,0,0,16,.68H47.45a8.23,8.23,0,0,0,15.87,0l3.59-.56ZM15,39.3a4.3,4.3,0,1,1,4.3-4.3A4.3,4.3,0,0,1,15,39.3Zm19.7-25.59a2.69,2.69,0,0,1,1.94.88l6.9,6.07H30.68l-.24-6.94ZM16,20.66s4.74-5.77,5.35-6.28a2.53,2.53,0,0,1,2.17-.74h3.75l-.22,7ZM55.38,39.3a4.3,4.3,0,1,1,4.3-4.3A4.3,4.3,0,0,1,55.38,39.3Zm7.06-20.12s1.08.86-11.53-2.06c8.54-3.62,11.34-5,10.29-17.12,8.37,9.63,11.56,7.84,19.43,4.52-6.13,10.27-6.51,9.72-6.51,9.72a13.82,13.82,0,0,1,.68-4.66A13.88,13.88,0,0,1,64.23,7.15a13.87,13.87,0,0,1-5.59,9.3A13.87,13.87,0,0,1,62.44,19.18Z"/></g></g></svg>