<?xml version="1.0" encoding="utf-8"?>
<!-- Generator: Adobe Illustrator 21.0.0, SVG Export Plug-In . SVG Version: 6.00 Build 0)  -->
<svg version="1.0" id="bulb" xmlns="http://www.w3.org/2000/svg" xmlns:xlink="http://www.w3.org/1999/xlink" x="0px" y="0px"
	 viewBox="0 0 63 67" style="enable-background:new 0 0 63 67;" xml:space="preserve">
<style type="text/css">
	.st0{fill:#108BC9;}
</style>
<path class="st0" d="M31.5,13.3c-10,0-18.1,8.1-18.1,18.1c0,5.8,3,11,6.8,14.6c1.5,1.5,2.3,3.4,3.2,5c0.2,0.3,0.4,0.6,0.7,0.6h14.8
	c0.3,0,0.6-0.3,0.7-0.6c0.8-1.6,1.6-3.5,3.2-5c3.8-3.7,6.8-8.8,6.8-14.6C49.6,21.4,41.5,13.3,31.5,13.3L31.5,13.3z M24.9,52.9
	c-0.7,0-1.3,0.6-1.3,1.3c0,0.7,0.6,1.3,1.3,1.3h13.1c0.7,0,1.3-0.6,1.3-1.3c0-0.7-0.6-1.3-1.3-1.3H24.9
	C24.9,52.9,24.9,52.9,24.9,52.9z M24.9,56.8c-0.7,0-1.3,0.6-1.3,1.3c0,0.7,0.6,1.3,1.3,1.3h13.1c0.7,0,1.3-0.6,1.3-1.3
	c0-0.7-0.6-1.3-1.3-1.3H24.9z M24.9,60.7c-0.7,0-1.3,0.6-1.3,1.3c0,0.7,0.6,1.3,1.3,1.3h13.1c0.7,0,1.3-0.6,1.3-1.3
	c0-0.7-0.6-1.3-1.3-1.3H24.9z M28,64.6c-0.3,0-0.5,0-0.8,0c0.9,1.4,2.5,2.3,4.3,2.3c1.8,0,3.4-0.9,4.3-2.3c-2.4,0.1-4.8-0.1-7.2,0
	C28.4,64.6,28.2,64.6,28,64.6z M8.6,30c0.7,0,1.3,0.6,1.3,1.3s-0.6,1.3-1.3,1.3H1.5c-0.7,0-1.3-0.6-1.3-1.3S0.8,30,1.5,30H8.6z
	 M61.5,30c0.7,0,1.3,0.6,1.3,1.3s-0.6,1.3-1.3,1.3h-7.1c-0.7,0-1.3-0.6-1.3-1.3s0.6-1.3,1.3-1.3H61.5z M30.2,1.4
	c0-0.7,0.6-1.3,1.3-1.3c0.7,0,1.3,0.6,1.3,1.3v7.1c0,0.7-0.6,1.3-1.3,1.3c-0.7,0-1.3-0.6-1.3-1.3V1.4z M16.3,14.2
	c0.5,0.5,0.5,1.4,0,1.9c-0.5,0.5-1.4,0.5-1.9,0l-5-5c-0.5-0.5-0.5-1.4,0-1.9c0.5-0.5,1.4-0.5,1.9,0L16.3,14.2z M53.7,51.6
	c0.5,0.5,0.5,1.4,0,1.9c-0.5,0.5-1.4,0.5-1.9,0l-5-5c-0.5-0.5-0.5-1.4,0-1.9c0.5-0.5,1.4-0.5,1.9,0L53.7,51.6z M51.8,9.2
	c0.5-0.5,1.4-0.5,1.9,0c0.5,0.5,0.5,1.4,0,1.9l-5,5c-0.5,0.5-1.4,0.5-1.9,0c-0.5-0.5-0.5-1.4,0-1.9L51.8,9.2z M14.4,46.6
	c0.5-0.5,1.4-0.5,1.9,0c0.5,0.5,0.5,1.4,0,1.9l-5,5c-0.5,0.5-1.4,0.5-1.9,0c-0.5-0.5-0.5-1.4,0-1.9L14.4,46.6z"/>
</svg>
