<svg version="1.0" id="by_nature" xmlns="http://www.w3.org/2000/svg" xmlns:xlink="http://www.w3.org/1999/xlink" x="0px" y="0px"
	 viewBox="0 0 54 72" style="enable-background:new 0 0 54 72;" xml:space="preserve">
<style type="text/css">
	.st0{fill:#108BC9;}
</style>
<path class="st0" d="M45.2,4.4L38,15.8l7.8,3.3L28.3,32.6l6.3-11.4l-4.8-2l8.6-19L45.2,4.4z M53.7,47.6c-0.2,0.2-0.4,0.3-0.6,0.3
	l-3.4,0.2c-0.1,0-0.2,0.1-0.2,0.1c0,0.1,0,0.2,0,0.2l2.7,3.7c0.5,0.6,0.7,1.4,0.7,2.2l-9.2,0.1c-1,0.1-2.6,4.3-2.4,4.8
	c0.1,0.2,0.3,0.3,0.5,0.3l11-0.4l-1,9.7c0,0.8-0.7,1.3-1.4,1.3h-5.3c-0.7,0-1.3-0.5-1.4-1.3l-0.3-2.5h-28L15.1,69
	c-0.1,0.7-0.7,1.3-1.4,1.3H8.3c-0.8,0-1.4-0.6-1.4-1.3l-1-9.7l11,0.4c0.2,0,0.4-0.1,0.5-0.3c0.3-0.5-1.4-4.7-2.4-4.8l-9.2-0.1
	c0-0.8,0.3-1.6,0.7-2.2l1.2-1.7c-3.1-0.9-5.5-2.8-6.7-5.4c-2.3-4.9-0.2-9.6,1.7-13.8L3,30.8c1.1-2.6,2.1-4.9,2.4-7.5l0.7-5.8
	l4.9,3.2c3.5,2.3,6.7,4.4,9.2,6.6c3,2.6,4.7,5.2,5.5,7.4c1.1,0,2.3,0,3.6,0c12.6,0,13.3,0.7,13.9,1.3c0.2,0.2,0.4,0.5,0.5,0.8
	l3.4,8.6l0.8,1.7c0.4-0.1,0.6-0.1,0.6-0.2c0,0,0,0,0.1,0c0.1,0,0.1-0.1,0.1-0.1v-1.1c0-0.3,0.1-0.7,0.4-0.9c0.3-0.2,0.6-0.3,0.9-0.3
	l2.6,0.4c0.6,0.1,1,0.5,1.1,1.1l0.1,1C53.9,47.2,53.8,47.4,53.7,47.6z M17.9,30.1c-2.4-2.1-5.5-4.1-8.8-6.3
	c-0.4,3.1-1.6,5.9-2.7,8.5c-1.8,4.1-3.5,7.7-1.9,11.2c1.2,2.7,4.4,3.9,7.7,3.9c-4.7-2.5-0.4-7.7,1.1-11.2c1.1,4.1,7,4.4,5.1,9.6
	C23.1,43.1,25.7,36.8,17.9,30.1z M43,45l-2.1-6.5c-1.5-0.2-5.7-0.4-11.5-0.4c-1,0-1.6,0-2.5,0c0,0.6,0,1.2,0,1.7
	c-0.2,2-0.9,3.8-2.1,5.4c1.6,0,2.8,0,4.6,0C35.4,45.2,40.4,45.1,43,45z"/>
</svg>
