<svg version="1.0" id="accident" xmlns="http://www.w3.org/2000/svg" xmlns:xlink="http://www.w3.org/1999/xlink" x="0px" y="0px"
	 viewBox="0 0 159 64" style="enable-background:new 0 0 159 64;" xml:space="preserve">
<style type="text/css">
	.st0{fill:#0E8BC9;}
</style>
<path class="st0" d="M113.9,60.8c-0.2,0.2-0.3,0.5-0.3,0.8c0,0.3,0.2,0.6,0.4,0.8l1,0.8c0.6,0.4,1.3,0.4,1.9,0l2.6-2
	c0.3-0.3,0.6-0.7,0.6-1.1c0-0.4-0.1-0.9-0.4-1.2l-1-1c-0.1-0.1-0.1-0.2,0-0.2c0,0,0,0,0.1-0.1c-0.1-0.1,0.1-0.3,0.4-0.7l2.2,0.8
	l10.7,4.7c0.4,0.2,0.8,0.3,1.2,0.3c1,0,2.3,0,13.5-11.2C158,40.3,158,39,158,38c0-0.4-0.1-0.8-0.3-1.2l-5.5-12.9
	c0.4-0.3,0.7-0.5,0.8-0.4c0,0,0,0,0.1-0.1c0.1,0,0.2,0,0.2,0l1,1c0.3,0.3,0.7,0.5,1.2,0.4c0.4,0,0.8-0.2,1.1-0.6l2-2.6
	c0.4-0.6,0.4-1.3,0-1.9l-0.8-1c-0.2-0.2-0.5-0.4-0.8-0.4c-0.3,0-0.6,0.1-0.8,0.3l-3.3,2.9c-0.1,0.1-0.2,0.1-0.3,0.1
	c-0.1,0-0.2-0.1-0.2-0.2l-0.9-5.7c-0.2-1-0.6-1.9-1.3-2.6l-8.3,8.1c-1,0.9-6.2-1.5-6.4-2.1c-0.1-0.3,0-0.6,0.2-0.8l10.2-9.5L136.3,1
	c-0.7-0.6-1.8-0.6-2.5,0.1L129,5.8c-0.6,0.6-0.7,1.7-0.1,2.4l1.9,2.4l-25,25l-2.4-1.9c-0.7-0.6-1.7-0.5-2.4,0.1l-4.8,4.8
	c-0.7,0.7-0.7,1.8-0.1,2.5l7.7,9.5l9.5-10.2c0.2-0.2,0.5-0.3,0.8-0.2c0.6,0.2,3,5.4,2.1,6.4l-8.1,8.3c0.7,0.7,1.6,1.2,2.6,1.3
	l5.7,0.9c0.1,0,0.2,0.1,0.2,0.2c0,0.1,0,0.2-0.1,0.3L113.9,60.8z M153.6,37.8c-1.2,1.5-4.8,5.5-9.9,10.6c-5.2,5.2-9.1,8.8-10.6,9.9
	l-7.7-4c2.2-2.3,6.5-6.9,11.9-12.3c5.4-5.4,9.9-9.8,12.3-11.9L153.6,37.8z M90.8,40.4l-2-3.7l-24.1-3L51.3,22.9
	c-1.8-1.3-3.4-2.2-6.2-2.2l-15.7-0.1c-4.6,0-5.3,1-6.5,1.9c-1.3,0.9-10.1,9-10.1,9L1.2,33.8l-1,3l2.2,15.5l6.9,2.3
	c0.9,5,5.4,8.8,10.7,8.8c5,0,9.2-3.4,10.4-8h32.3c1.3,4.6,5.5,8,10.4,8c5,0,9.2-3.4,10.4-8l4.7-0.7L90.8,40.4z M19.9,58.2
	c-3.1,0-5.7-2.5-5.7-5.7c0-3.1,2.5-5.7,5.7-5.7c3.1,0,5.7,2.5,5.7,5.7C25.6,55.7,23.1,58.2,19.9,58.2z M45.9,24.5
	c1.3,0,1.8,0.6,2.6,1.2l9.1,8H40.6l-0.3-9.1L45.9,24.5z M21.3,33.7c0,0,6.2-7.6,7-8.3c0.8-0.7,1.1-1,2.9-1l4.9,0l-0.3,9.2H21.3z
	 M73.1,58.2c-3.1,0-5.7-2.5-5.7-5.7c0-3.1,2.5-5.7,5.7-5.7c3.1,0,5.7,2.5,5.7,5.7C78.8,55.7,76.3,58.2,73.1,58.2z M88.8,31.8
	c0,0,1.7,1.5-19-4.3C84.2,22.2,89,20,88.1-0.1c13.2,16.6,18.6,13.9,31.9,8.9c-10.9,16.6-11.5,15.7-11.5,15.7c0-2.6,0.5-5.2,1.5-7.7
	c-6.2,0.8-12.5-0.9-17.4-4.8c-1.1,6.2-4.7,11.6-10,15C85,28.3,87,29.9,88.8,31.8z"/>
</svg>
