<svg version="1.0" id="vandals" xmlns="http://www.w3.org/2000/svg" xmlns:xlink="http://www.w3.org/1999/xlink" x="0px" y="0px"
	 viewBox="0 0 99 50" style="enable-background:new 0 0 99 50;" xml:space="preserve">
<style type="text/css">
	.st0{fill:#108BC9;}
</style>
<path class="st0" d="M68.8,32.1l-1.5-2.8L48.9,27l-10.1-8.2c-1.4-1-2.6-1.7-4.7-1.7l-12,0c-3.5,0-4,0.8-5,1.5
	c-1,0.7-7.7,6.9-7.7,6.9l-8.7,1.7L0,29.4l1.7,11.7l5.2,1.7c0.7,3.8,4.1,6.7,8.1,6.7c3.8,0,7-2.6,7.9-6h24.5c1,3.5,4.2,6,7.9,6
	s7-2.6,7.9-6l3.6-0.6L68.8,32.1z M15,45.7c-2.4,0-4.3-1.9-4.3-4.3c0-2.4,1.9-4.3,4.3-4.3c2.4,0,4.3,1.9,4.3,4.3
	C19.3,43.7,17.4,45.7,15,45.7z M34.7,20.1c1,0,1.4,0.4,1.9,0.9l6.9,6.1H30.7l-0.2-6.9L34.7,20.1z M16,27c0,0,4.7-5.8,5.3-6.3
	c0.6-0.5,0.8-0.7,2.2-0.7l3.8,0L27,27H16z M55.4,45.7c-2.4,0-4.3-1.9-4.3-4.3c0-2.4,1.9-4.3,4.3-4.3c2.4,0,4.3,1.9,4.3,4.3
	C59.7,43.7,57.8,45.7,55.4,45.7z M54.7,24.1c0,0,0.9,0.9-9.1-3c4.3-1.8,8.1-3.8,6.3-14.5c6.2,8.4,10.8,7.3,15.4,5.3
	c-3.8,9.2-4.1,8.6-4.1,8.6c-0.2-1.5-0.2-3,0.1-4.4c-2.8,0.3-5.8-0.1-8.4-2.5c-0.1,3.5-1.3,5.7-3.4,7.5
	C52.7,21.9,53.7,22.9,54.7,24.1z M96.2,30.2c-0.1,0-0.2,0-0.3,0c-1.5,0-2.8-1.2-3-2.8l-0.2-2.2l-2.3-1.5l-0.2,8.9l0.1,5l4.4,5.4
	c1,1.3,0.8,3.3-0.5,4.3c-0.6,0.5-1.3,0.7-2,0.7c-0.9,0-1.8-0.4-2.3-1.2l-5-6.2c-0.4-0.5-0.6-1.1-0.7-1.8L83.9,34
	c0,0.1,0,0.1-0.1,0.2l-3.1,5l2,5.3c0.7,1.5,0,3.4-1.5,4.1c-0.4,0.2-0.9,0.3-1.3,0.3c-1.1,0-2.2-0.7-2.7-1.8l-2.6-6.5
	c-0.4-0.8-0.4-1.7,0-2.5l3.4-5.7l0.2-9.4c-0.1,0-0.1,0-0.2,0l-6.4-1.4c-1.1-0.2-1.9-1-2.3-2.1l-1.1-3.6c-0.5-1.6,0.4-3.3,2-3.9
	c1.6-0.5,3.3,0.4,3.9,2l0.6,1.9l4,0.9L90.5,17v0c0.5,0,1.1,0.2,1.6,0.5l5.1,3.3c0.8,0.5,1.3,1.4,1.4,2.3l0.3,3.7
	C99.1,28.5,97.9,30,96.2,30.2z M84.8,14.2c-3.9-0.1-7-3.3-6.9-7.2c0.1-3.9,3.3-7,7.2-6.9c3.9,0.1,7,3.3,6.9,7.2
	C92,11.2,88.8,14.3,84.8,14.2z"/>
</svg>
