<svg id="logo" xmlns="http://www.w3.org/2000/svg" xmlns:xlink="http://www.w3.org/1999/xlink" viewBox="0 0 273 93">
    <defs>
        <style>
        .cls-1 {
            fill: #21a5de;
        }

        .cls-2 {
            fill: #fff;
        }

        .cls-3 {
            fill: url(#linear-gradient);
        }

        .cls-4 {
            fill: #fcd13d;
        }

        .cls-5 {
            fill: url(#linear-gradient-2);
        }

        .cls-6 {
            fill: #e54d25;
        }

        .cls-7 {
            fill: url(#linear-gradient-3);
        }

        .cls-8 {
            fill: #e8474c;
        }

        .cls-9 {
            fill: url(#linear-gradient-4);
        }

        .cls-10 {
            fill: #e73864;
        }

        .cls-11 {
            fill: url(#linear-gradient-5);
        }

        .cls-12 {
            fill: #b03288;
        }

        .cls-13 {
            fill: url(#linear-gradient-6);
        }

        .cls-14 {
            fill: #1b6cb1;
        }

        .cls-15 {
            fill: url(#linear-gradient-7);
        }

        .cls-16 {
            fill: #108bc9;
        }

        .cls-17 {
            fill: url(#linear-gradient-8);
        }

        .cls-18 {
            fill: url(#linear-gradient-9);
        }

        .cls-19 {
            fill: #f6eb74;
        }

        .cls-20 {
            fill: #1d5f9e;
        }

        .cls-21 {
            fill: #f0a228;
        }
        </style>
        <linearGradient id="linear-gradient" x1="245.71" y1="45.59" x2="233.63" y2="45.59" gradientUnits="userSpaceOnUse">
            <stop offset="0" stop-color="#f0a228" />
            <stop offset="1" stop-color="#f6eb74" />
        </linearGradient>
        <linearGradient id="linear-gradient-2" x1="253.63" y1="41.35" x2="246.8" y2="48.42" gradientUnits="userSpaceOnUse">
            <stop offset="0" stop-color="#ee7f35" />
            <stop offset="1" stop-color="#fbd62a" />
        </linearGradient>
        <linearGradient id="linear-gradient-3" x1="259.19" y1="32.96" x2="259.19" y2="48" gradientUnits="userSpaceOnUse">
            <stop offset="0" stop-color="#ae1f24" />
            <stop offset="1" stop-color="#e54d25" />
        </linearGradient>
        <linearGradient id="linear-gradient-4" x1="259.78" y1="23.44" x2="264.17" y2="33.31" gradientUnits="userSpaceOnUse">
            <stop offset="0" stop-color="#a41d46" />
            <stop offset="1" stop-color="#e8474c" />
        </linearGradient>
        <linearGradient id="linear-gradient-5" x1="253.56" y1="12.84" x2="263.24" y2="22.52" gradientUnits="userSpaceOnUse">
            <stop offset="0" stop-color="#85266b" />
            <stop offset="1" stop-color="#e73864" />
        </linearGradient>
        <linearGradient id="linear-gradient-6" x1="243.98" y1="11.27" x2="254.38" y2="11.27" gradientUnits="userSpaceOnUse">
            <stop offset="0" stop-color="#612d7e" />
            <stop offset="1" stop-color="#b13289" />
        </linearGradient>
        <linearGradient id="linear-gradient-7" x1="235.24" y1="14.51" x2="241.69" y2="7.35" gradientUnits="userSpaceOnUse">
            <stop offset="0" stop-color="#2a5082" />
            <stop offset="1" stop-color="#1b6cb1" />
        </linearGradient>
        <linearGradient id="linear-gradient-8" x1="228.82" y1="23.33" x2="227.48" y2="10.55" gradientUnits="userSpaceOnUse">
            <stop offset="0" stop-color="#1d5f9e" />
            <stop offset="1" stop-color="#108bc9" />
        </linearGradient>
        <linearGradient id="linear-gradient-9" x1="228.62" y1="34" x2="223.14" y2="22.77" gradientUnits="userSpaceOnUse">
            <stop offset="0" stop-color="#167bbd" />
            <stop offset="1" stop-color="#31a2db" />
        </linearGradient>
    </defs>
    <path id="open" class="cls-1" d="M5.91,69.09a10.24,10.24,0,0,1-3.32-2.85,12.35,12.35,0,0,1-2-4A17,17,0,0,1,0,57.55a13.71,13.71,0,0,1,.73-4.49,11.42,11.42,0,0,1,2.12-3.82,10.21,10.21,0,0,1,3.4-2.62,10.36,10.36,0,0,1,4.54-1,10.17,10.17,0,0,1,4.54,1,10.38,10.38,0,0,1,3.37,2.63,11.36,11.36,0,0,1,2.1,3.8,13.94,13.94,0,0,1,.73,4.49,16.81,16.81,0,0,1-.65,4.66,12.59,12.59,0,0,1-2,4.05,9.89,9.89,0,0,1-3.4,2.86,10.3,10.3,0,0,1-4.8,1.07,9.73,9.73,0,0,1-4.75-1.1m4.8-19.71a5.39,5.39,0,0,0-2.8.86A5.63,5.63,0,0,0,6.2,52.11a7.87,7.87,0,0,0-.85,2.54,18.69,18.69,0,0,0-.23,2.93,18.94,18.94,0,0,0,.29,3.3,10.73,10.73,0,0,0,.93,3A5.81,5.81,0,0,0,8.07,66a4.48,4.48,0,0,0,2.7.8,4.87,4.87,0,0,0,2.8-.86,5.5,5.5,0,0,0,1.7-2.11,9.77,9.77,0,0,0,.86-2.9,23.31,23.31,0,0,0,.24-3.27,15.39,15.39,0,0,0-.29-2.94,8.32,8.32,0,0,0-1-2.59,5.56,5.56,0,0,0-1.76-1.89,5.32,5.32,0,0,0-2.7-.83ZM34,70.41a10.78,10.78,0,0,1-3.24-.4,13.72,13.72,0,0,1-2.93-1.21V81.86L23,80.15V50a5.86,5.86,0,0,1,.7-.78,9.51,9.51,0,0,1,2-1.46,15.61,15.61,0,0,1,3.38-1.4,18.12,18.12,0,0,1,5-.68,7.58,7.58,0,0,1,4.25,1,8.73,8.73,0,0,1,2.91,2.85,13.9,13.9,0,0,1,1.71,4.11,19.81,19.81,0,0,1,.57,4.81,17.26,17.26,0,0,1-.54,4.29,11.37,11.37,0,0,1-1.71,3.74,9.81,9.81,0,0,1-3,2.7A8.59,8.59,0,0,1,34,70.35Zm-.56-21a7.77,7.77,0,0,0-1.93.13,12.64,12.64,0,0,0-1.63.44,9,9,0,0,0-1.27.54,6,6,0,0,0-.78.5V65.05a20.09,20.09,0,0,0,2.44,1.17,6.7,6.7,0,0,0,3,.49,4.58,4.58,0,0,0,2.59-.88,5.23,5.23,0,0,0,1.51-1.95A8.85,8.85,0,0,0,38,61.27a27.4,27.4,0,0,0,.16-2.91,26.11,26.11,0,0,0-.18-3,12.39,12.39,0,0,0-.68-2.85,5.52,5.52,0,0,0-1.42-2.16,3.69,3.69,0,0,0-2.44-.9Zm23.46,20.7a15.11,15.11,0,0,1-2.8.06,10.51,10.51,0,0,1-2.69-.57A7.54,7.54,0,0,1,49,68.16a11.16,11.16,0,0,1-3-4.23,13.29,13.29,0,0,1-1-5.52A20.44,20.44,0,0,1,45.43,54a12.66,12.66,0,0,1,1.61-4,8.86,8.86,0,0,1,2.9-2.9,8.18,8.18,0,0,1,4.44-1.12,9.57,9.57,0,0,1,4.23.86,7.21,7.21,0,0,1,2.8,2.47A11.6,11.6,0,0,1,63,53.1a26,26,0,0,1,.54,5.12H49.86a11,11,0,0,0,.37,3.6,8.52,8.52,0,0,0,1.29,2.7,5.41,5.41,0,0,0,2,1.69,5.16,5.16,0,0,0,2.51.52,10.05,10.05,0,0,0,3.24-.6c.95-.36,2-.84,3.29-1.42l1.35,2.75a25.46,25.46,0,0,1-2.2,1.3,11.68,11.68,0,0,1-2.21.83,15.64,15.64,0,0,1-2.65.52M52.66,49.72A3.93,3.93,0,0,0,51.37,51a6.65,6.65,0,0,0-.83,1.81,13.23,13.23,0,0,0-.47,2.17l8.56-.05a10.43,10.43,0,0,0-.31-2.15,5.57,5.57,0,0,0-.79-1.79,3.78,3.78,0,0,0-1.27-1.22,3.43,3.43,0,0,0-1.73-.45,3.83,3.83,0,0,0-1.87.45m27.68,20h4.77V52.13a5.57,5.57,0,0,0-.47-2.33A6.37,6.37,0,0,0,83.43,48a6.48,6.48,0,0,0-1.75-1.27A9.17,9.17,0,0,0,79.61,46a11.64,11.64,0,0,0-4-.23,19.07,19.07,0,0,0-3.27.65,14.09,14.09,0,0,0-3.24,1.34,32.17,32.17,0,0,0-3,2v20h4.76v-19a10,10,0,0,1,2-1,8.38,8.38,0,0,1,2.5-.5A5.1,5.1,0,0,1,79,50.42,4.46,4.46,0,0,1,80.34,54Z" />
    <path id="brokers" class="cls-2" d="M56.66,92a3,3,0,0,1-4.23,0c-.78-.78-.78-1.58-.78-3.34s0-2.57.78-3.36a3.05,3.05,0,0,1,4.23,0c.78.78.78,1.59.78,3.36s0,2.56-.78,3.34M56,85.86a2,2,0,0,0-1.42-.6,2,2,0,0,0-1.43.6c-.52.53-.58,1.08-.58,2.83s.06,2.29.58,2.82a2,2,0,0,0,1.43.6,2,2,0,0,0,1.42-.6c.53-.54.58-1.09.58-2.82s0-2.3-.58-2.83m9,6.19a2.9,2.9,0,0,1-2.1.77H60V84.54h2.83a2.93,2.93,0,0,1,2.1.77c.86.86.81,2.13.81,3.28s0,2.61-.81,3.46m-.62-6.12a2.17,2.17,0,0,0-1.64-.61H60.87V92h1.79a2.18,2.18,0,0,0,1.64-.6c.57-.59.54-1.83.54-2.84s0-2.06-.54-2.65m10.18,6.89-3-5.08,2.6-3.2H73L69.17,89.3V84.54h-.88v8.28h.88V90.51l1.75-2.1,2.52,4.41Zm6.58,0-1.89-3.67h-2v3.67h-.89V84.54h3.18a2.24,2.24,0,0,1,2.45,2.3,2.14,2.14,0,0,1-1.8,2.22l2,3.76ZM79.4,85.34H77.2v3H79.4a1.52,1.52,0,1,0,0-3m9.69-.79h-.95l-1.93,4-2-4h-.95l2.46,4.87v3.42h.89V89.41Zm10.31,0h-.94l-1.62,6.67L95,84.54h-.79l-1.82,6.67-1.62-6.67h-.94L92,92.83h.83l1.84-6.63,1.84,6.63h.82ZM106,92.83,105.29,91h-3.61L101,92.83h-.94l3-8.28h.75l3,8.28Zm-2.46-7-1.56,4.38H105Zm12.29,7V84.54h-.88l-2.63,5.88-2.7-5.88h-.88v8.28h.88v-6.3l2.31,5h.75l2.27-5v6.3Zm7.56-8.28h-1l-1.93,4-2-4h-1L120,89.41v3.42h.89V89.41Zm7.89,8.35a2.74,2.74,0,0,0,2.89-2.8V84.54h-.88V90a2,2,0,1,1-4,0V84.54h-.87v5.55a2.73,2.73,0,0,0,2.88,2.8m8.86-.07h-3.22V84.54H140a2.19,2.19,0,0,1,2.45,2.22,1.88,1.88,0,0,1-1.23,1.81,2,2,0,0,1,1.35,2,2.19,2.19,0,0,1-2.47,2.29m-.17-7.49h-2.16v2.88h2.16c.92,0,1.63-.46,1.63-1.44s-.7-1.44-1.63-1.44M140,89h-2.26v3H140a1.52,1.52,0,1,0,0-3m10.24,3.82V92H146V89h3.63v-.79H146V85.34h4.26v-.79h-5.14v8.28Zm6.91,0V92H153l4.17-6.74v-.75h-5v.79h4L152,92v.83Zm5.41-3.41h-2.19v3.41h-.89V84.54h3.08a2.44,2.44,0,1,1,0,4.87m-.08-4.08h-2.11v3.29h2.11a1.65,1.65,0,1,0,0-3.29m4.79,7.49h.88V84.54h-.88Zm8.89,0V92h-4.26V89h3.63v-.79h-3.63V85.34h4.26v-.79H171v8.28Zm4.88.07a2.78,2.78,0,0,0,2.87-2.47h-.88a2,2,0,0,1-3.42,1.1c-.52-.54-.58-1.1-.58-2.84s.06-2.31.58-2.85a2,2,0,0,1,1.43-.58,2,2,0,0,1,2,1.68h.91a2.78,2.78,0,0,0-2.87-2.46,3,3,0,0,0-2.12.85c-.78.78-.78,1.59-.78,3.36s0,2.56.78,3.34a3,3,0,0,0,2.13.86m9.89-.07V92h-4.16L191,85.29v-.75h-5v.79h4L185.82,92v.83Zm7.48,0V92h-4.26V89h3.63v-.79h-3.63V85.34h4.26v-.79H193.3v8.28Zm8.42,0V84.54H206v6.62l-4.39-6.62h-.84v8.28h.89V86.18l4.4,6.64Zm2.86,0h.88V84.54h-.88Zm8.57,0L217.63,91H214l-.67,1.87h-.94l3-8.28h.73l3,8.28Zm-2.45-7-1.56,4.38h3.09ZM108.9,49.2a9.85,9.85,0,0,0-3.08-2.79,9.66,9.66,0,0,0-4.48-1.2,11,11,0,0,0-3.36.41,14.42,14.42,0,0,0-2.07.77V32.18l-5.94,2V65.82L90,66a5.29,5.29,0,0,0,.77.89,9.56,9.56,0,0,0,2,1.5,16.4,16.4,0,0,0,3.42,1.46,19.14,19.14,0,0,0,5,.76l.65,0v0a7.33,7.33,0,0,0,3.72-1,9.67,9.67,0,0,0,3.09-3,14.26,14.26,0,0,0,1.87-4.22,19.22,19.22,0,0,0,.63-4.89,17,17,0,0,0-.56-4.34,11.46,11.46,0,0,0-1.76-3.87m-4,8.43a18.75,18.75,0,0,1-.23,2.87,11.17,11.17,0,0,1-.71,2.65,5.49,5.49,0,0,1-1.3,1.92,2.69,2.69,0,0,1-1.88.74,8,8,0,0,1-3.31-.44,9.23,9.23,0,0,1-1.55-.72V51.3a17.59,17.59,0,0,1,1.92-.8A6.24,6.24,0,0,1,100,50.1h.5a4.14,4.14,0,0,1,2.22.72A4.28,4.28,0,0,1,104,52.48a8.16,8.16,0,0,1,.66,2.38,23.19,23.19,0,0,1,.17,2.77m21.63-9.09q.46-.91,1-2.09l.35-.72-.79-.15a15.14,15.14,0,0,0-4.92-.29,19.75,19.75,0,0,0-3.66.93,14,14,0,0,0-5.75,3.89l-.15.18V70.12h5.94V51.79a7.47,7.47,0,0,1,1.62-.92,6.57,6.57,0,0,1,2.54-.44h.08a2.48,2.48,0,0,1,.74,0l1.95.34.19-.47c.27-.62.56-1.23.85-1.8m18.56.43a10.86,10.86,0,0,0-3.51-2.74,10.62,10.62,0,0,0-4.73-1,10.44,10.44,0,0,0-8.26,3.74,12.37,12.37,0,0,0-2.21,4,14.48,14.48,0,0,0-.74,4.6,17.06,17.06,0,0,0,.66,4.74,12.82,12.82,0,0,0,2,4.15,10.62,10.62,0,0,0,3.46,3,10.18,10.18,0,0,0,5,1.14,10.66,10.66,0,0,0,5-1.11,10.32,10.32,0,0,0,3.54-3,12.94,12.94,0,0,0,2.06-4.19A17.08,17.08,0,0,0,148,57.5a14.56,14.56,0,0,0-.74-4.6A12.11,12.11,0,0,0,145.07,49m-8.33,1.15a4.64,4.64,0,0,1,2.28.71,4.91,4.91,0,0,1,1.53,1.65,7.45,7.45,0,0,1,.87,2.36,14.37,14.37,0,0,1,.27,2.75,22.93,22.93,0,0,1-.22,3.12,9.11,9.11,0,0,1-.79,2.67,4.67,4.67,0,0,1-1.49,1.83,4.1,4.1,0,0,1-2.37.73,3.73,3.73,0,0,1-2.28-.66A5.1,5.1,0,0,1,133,63.4a10.12,10.12,0,0,1-.86-2.74,17.46,17.46,0,0,1-.27-3.12,16.8,16.8,0,0,1,.22-2.78,6.88,6.88,0,0,1,.77-2.29,4.84,4.84,0,0,1,1.49-1.61,4.63,4.63,0,0,1,2.36-.73m31.47-2.2-3.45-3.3-9.06,8.29V32.17l-5.93,2.07V70.12h5.93V59.48l.63-.58,7.21,11.21h7.07l-9.79-15.37Zm18,16c-1.18.56-2.25,1-3.18,1.38a9,9,0,0,1-3,.54,4.5,4.5,0,0,1-2.17-.44,4.75,4.75,0,0,1-1.73-1.48A7.67,7.67,0,0,1,175,61.51a9.72,9.72,0,0,1-.35-2.74H188.1v-.64a26.42,26.42,0,0,0-.56-5.14,11.69,11.69,0,0,0-1.61-4,7.56,7.56,0,0,0-3-2.63,10.1,10.1,0,0,0-4.43-.89,8.71,8.71,0,0,0-4.68,1.18,9.52,9.52,0,0,0-3,3.05,13.34,13.34,0,0,0-1.65,4.14,20.7,20.7,0,0,0-.5,4.5A13.69,13.69,0,0,0,169.68,64a11.82,11.82,0,0,0,3.12,4.38,8.34,8.34,0,0,0,2.53,1.48,10.55,10.55,0,0,0,2.82.6c.39,0,.77,0,1.15,0,.57,0,1.14,0,1.71-.1a16,16,0,0,0,2.68-.53A10.79,10.79,0,0,0,186,69a24.41,24.41,0,0,0,2.23-1.3l.46-.31-1.84-3.74ZM175,54.31c.09-.46.19-.89.32-1.31a6.4,6.4,0,0,1,.74-1.61,3,3,0,0,1,1.06-1,3,3,0,0,1,1.52-.36,2.68,2.68,0,0,1,1.38.34,3.34,3.34,0,0,1,1,1,5.31,5.31,0,0,1,.67,1.57,9,9,0,0,1,.24,1.32Zm30.55-8.58-.79-.15a15.1,15.1,0,0,0-4.92-.29,19.64,19.64,0,0,0-3.66.93,13.94,13.94,0,0,0-5.76,3.89l-.15.18V70.12h5.93V51.79a7.49,7.49,0,0,1,1.63-.92,6.54,6.54,0,0,1,2.53-.44h.08a2.52,2.52,0,0,1,.75,0l1.94.34.2-.47c.27-.62.55-1.24.84-1.8s.65-1.3,1-2.09Zm8.86,9.91c-2.44-1.07-3.93-1.82-3.93-3.72s1.22-3.1,3.35-3.1a8,8,0,0,1,4.08,1.27l.67.43,1.58-3.57-.48-.33a11.48,11.48,0,0,0-6.39-1.76c-4.68,0-8.07,3-8.07,7.23,0,4.69,3.35,6.18,6,7.37,2.53,1.11,4.09,1.9,4.09,4.06s-1.58,3.44-3.94,3.44a9,9,0,0,1-4.57-1.27l-.67-.42L204.54,69l.48.32a13.17,13.17,0,0,0,6.83,1.76c5.05,0,8.87-3.34,8.87-7.75,0-5-3.49-6.48-6.29-7.7" />
    <g id="sign">
        <path class="cls-3" d="M235,56h0l9-1.57V35.5a7,7,0,0,1-2.18-.35Z" />
        <path class="cls-4" d="M243.95,35.5V54.45l9,1.57-6.78-20.87A7,7,0,0,1,243.95,35.5Z" />
        <path class="cls-5" d="M246.14,35.16,252.91,56l6.33-6.54L248.1,34.15A6.85,6.85,0,0,1,246.14,35.16Z" />
        <path class="cls-6" d="M248.1,34.15l11.14,15.34,8.18-4L249.68,32.6A7.11,7.11,0,0,1,248.1,34.15Z" />
        <path class="cls-7" d="M249.68,32.6l17.74,12.89,1.28-9-18-5.85A7.31,7.31,0,0,1,249.68,32.6Z" />
        <path class="cls-8" d="M251,28.44h0a7.23,7.23,0,0,1-.34,2.19l18,5.86,4.26-8Z" />
        <path class="cls-9" d="M251,28.44H273l-4.26-8-18,5.85A7.33,7.33,0,0,1,251,28.44Z" />
        <path class="cls-10" d="M250.69,26.24l18-5.85-1.28-9-17.74,12.9A7.29,7.29,0,0,1,250.69,26.24Z" />
        <path class="cls-11" d="M249.68,24.27l17.74-12.9-8.18-4L248.1,22.71A7.18,7.18,0,0,1,249.68,24.27Z" />
        <path class="cls-12" d="M248.1,22.71,259.25,7.38,252.91.84l-6.78,20.87A7.09,7.09,0,0,1,248.1,22.71Z" />
        <path class="cls-13" d="M246.14,21.71,252.91.84l-9,1.57v19A7.11,7.11,0,0,1,246.14,21.71Z" />
        <path class="cls-14" d="M243.95,21.36v-19L235,.84l6.78,20.87A7.08,7.08,0,0,1,243.95,21.36Z" />
        <path class="cls-15" d="M241.77,21.71,235,.84l-6.34,6.54,11.14,15.34A7,7,0,0,1,241.77,21.71Z" />
        <path class="cls-16" d="M239.79,22.71,228.65,7.38l-8.17,4,17.75,12.9A7.22,7.22,0,0,1,239.79,22.71Z" />
        <path class="cls-17" d="M238.23,24.27l-17.75-12.9-1.28,9,18,5.85A7,7,0,0,1,238.23,24.27Z" />
        <path class="cls-16" d="M237.22,26.24l-18-5.85-4.26,8h21.94A6.78,6.78,0,0,1,237.22,26.24Z" />
        <path class="cls-18" d="M236.88,28.44H214.94l4.26,8,18-5.85a6.79,6.79,0,0,1-.34-2.19Z" />
        <path class="cls-19" d="M241.77,35.16a6.84,6.84,0,0,1-2-1L228.65,49.49,235,56Z" />
        <path class="cls-20" d="M219.24,37.47a1,1,0,0,1-1.19-.61.94.94,0,0,1,.61-1.2L246.91,27a.41.41,0,0,1,.51.26.4.4,0,0,1-.26.51Z" />
        <path class="cls-21" d="M229.27,50.26a.95.95,0,0,1-1.54-1.12l17.8-23.57a.4.4,0,0,1,.56-.08.39.39,0,0,1,.09.55Z" />
    </g>
</svg>