<svg version="1.0" id="logo-sm" xmlns="http://www.w3.org/2000/svg" xmlns:xlink="http://www.w3.org/1999/xlink" x="0px" y="0px"
	 viewBox="0 0 151 38" style="enable-background:new 0 0 151 38;" xml:space="preserve">
<style type="text/css">
	.st0{fill:#172A53;}
	.st1{fill:#21A5DE;}
	.st2{fill:url(#SVGID_1_);}
	.st3{fill:#FCD13D;}
	.st4{fill:url(#SVGID_2_);}
	.st5{fill:#E54D25;}
	.st6{fill:url(#SVGID_3_);}
	.st7{fill:#E8474C;}
	.st8{fill:url(#SVGID_4_);}
	.st9{fill:#E73864;}
	.st10{fill:url(#SVGID_5_);}
	.st11{fill:#B03288;}
	.st12{fill:url(#SVGID_6_);}
	.st13{fill:#1B6CB1;}
	.st14{fill:url(#SVGID_7_);}
	.st15{fill:#108BC9;}
	.st16{fill:url(#SVGID_8_);}
	.st17{fill:url(#SVGID_9_);}
	.st18{fill:#F6EB74;}
	.st19{fill:#1D5F9E;}
	.st20{fill:#F0A228;}
</style>
<path id="_x32_" class="st0" d="M27.1,21v2h-1.7v3.8c0,0.8,0,1.2,0,1.4c0,0.1,0.1,0.2,0.2,0.3c0.1,0.1,0.3,0.1,0.4,0.1
	c0.2,0,0.6-0.1,1-0.2l0.2,2c-0.6,0.3-1.3,0.4-2,0.4c-0.5,0-0.9-0.1-1.2-0.2c-0.4-0.2-0.6-0.4-0.8-0.6c-0.2-0.2-0.3-0.6-0.4-1
	c-0.1-0.3-0.1-0.9-0.1-1.8v-4.2h-1.2v-2h1.2v-1.9l2.5-1.5V21H27.1z M27.3,21H30l2.3,6.8l2.2-6.8h2.6l-3.4,9.2l-0.6,1.7
	c-0.2,0.6-0.4,1-0.6,1.3c-0.2,0.3-0.4,0.5-0.7,0.7s-0.6,0.3-1,0.4c-0.4,0.1-0.8,0.2-1.3,0.2c-0.5,0-1-0.1-1.4-0.2l-0.2-2
	c0.4,0.1,0.8,0.1,1.1,0.1c0.6,0,1-0.2,1.3-0.5s0.5-0.8,0.6-1.3L27.3,21z M38.4,30.6V17.4h2.5v13.2H38.4z M43,30.6V17.4h2.5v7l3-3.4
	h3.1l-3.3,3.5l3.5,6.1h-2.7l-2.4-4.3l-1.2,1.2v3.1H43z M52.4,25.7c0-0.8,0.2-1.7,0.6-2.4c0.4-0.8,1-1.4,1.8-1.8
	c0.8-0.4,1.6-0.6,2.5-0.6c1.4,0,2.6,0.5,3.6,1.4c0.9,0.9,1.4,2.1,1.4,3.6c0,1.4-0.5,2.6-1.4,3.6c-0.9,1-2.1,1.4-3.5,1.4
	c-0.9,0-1.7-0.2-2.5-0.6s-1.4-1-1.8-1.7C52.6,27.7,52.4,26.8,52.4,25.7z M55,25.8c0,0.9,0.2,1.7,0.7,2.2c0.5,0.5,1,0.8,1.7,0.8
	s1.2-0.3,1.7-0.8c0.4-0.5,0.7-1.2,0.7-2.2c0-0.9-0.2-1.7-0.7-2.2c-0.4-0.5-1-0.8-1.7-0.8s-1.2,0.3-1.7,0.8
	C55.2,24.1,55,24.9,55,25.8z"/>
<path id="_x31_" class="st1" d="M5.7,21v2H4v3.8c0,0.8,0,1.2,0,1.4c0,0.1,0.1,0.2,0.2,0.3c0.1,0.1,0.3,0.1,0.4,0.1
	c0.2,0,0.6-0.1,1-0.2l0.2,2c-0.6,0.3-1.3,0.4-2,0.4c-0.5,0-0.9-0.1-1.2-0.2c-0.4-0.2-0.6-0.4-0.8-0.6c-0.2-0.2-0.3-0.6-0.4-1
	c-0.1-0.3-0.1-0.9-0.1-1.8v-4.2H0.3v-2h1.2v-1.9L4,17.7V21H5.7z M6.5,25.7c0-0.8,0.2-1.7,0.6-2.4c0.4-0.8,1-1.4,1.8-1.8
	c0.8-0.4,1.6-0.6,2.5-0.6c1.4,0,2.6,0.5,3.6,1.4c0.9,0.9,1.4,2.1,1.4,3.6c0,1.4-0.5,2.6-1.4,3.6c-0.9,1-2.1,1.4-3.5,1.4
	c-0.9,0-1.7-0.2-2.5-0.6s-1.4-1-1.8-1.7C6.7,27.7,6.5,26.8,6.5,25.7z M9.1,25.8c0,0.9,0.2,1.7,0.7,2.2c0.5,0.5,1,0.8,1.7,0.8
	s1.2-0.3,1.7-0.8c0.4-0.5,0.7-1.2,0.7-2.2c0-0.9-0.2-1.7-0.7-2.2c-0.4-0.5-1-0.8-1.7-0.8s-1.2,0.3-1.7,0.8
	C9.4,24.1,9.1,24.9,9.1,25.8z M67.7,27.9l2.5-0.4c0.1,0.5,0.3,0.9,0.7,1.1c0.3,0.3,0.8,0.4,1.4,0.4c0.7,0,1.1-0.1,1.5-0.4
	c0.2-0.2,0.3-0.4,0.3-0.7c0-0.2-0.1-0.4-0.2-0.5c-0.1-0.1-0.4-0.2-0.8-0.3c-2-0.4-3.3-0.9-3.9-1.2c-0.8-0.5-1.1-1.2-1.1-2.1
	c0-0.8,0.3-1.5,1-2.1c0.7-0.6,1.7-0.8,3-0.8c1.3,0,2.3,0.2,2.9,0.6c0.6,0.4,1.1,1.1,1.3,1.9l-2.4,0.4c-0.1-0.4-0.3-0.7-0.6-0.9
	c-0.3-0.2-0.7-0.3-1.2-0.3c-0.7,0-1.1,0.1-1.4,0.3c-0.2,0.1-0.3,0.3-0.3,0.5c0,0.2,0.1,0.3,0.3,0.5c0.2,0.2,1,0.4,2.4,0.7
	c1.3,0.3,2.3,0.7,2.8,1.1c0.5,0.4,0.8,1.1,0.8,1.9c0,0.9-0.4,1.6-1.1,2.3c-0.7,0.6-1.8,0.9-3.2,0.9c-1.3,0-2.3-0.3-3.1-0.8
	C68.5,29.5,68,28.8,67.7,27.9z M77.5,30.6v-2l3.6-4.1c0.6-0.7,1-1.1,1.3-1.4c-0.3,0-0.7,0-1.2,0l-3.4,0V21h7.9v1.8L82.1,27l-1.3,1.4
	c0.7,0,1.1-0.1,1.3-0.1H86v2.2H77.5z M87.2,30.6V17.4h2.5v7l3-3.4h3.1l-3.3,3.5l3.5,6.1h-2.7l-2.4-4.3l-1.2,1.2v3.1H87.2z
	 M96.6,25.7c0-0.8,0.2-1.7,0.6-2.4c0.4-0.8,1-1.4,1.8-1.8c0.8-0.4,1.6-0.6,2.5-0.6c1.4,0,2.6,0.5,3.6,1.4c0.9,0.9,1.4,2.1,1.4,3.6
	c0,1.4-0.5,2.6-1.4,3.6c-0.9,1-2.1,1.4-3.5,1.4c-0.9,0-1.7-0.2-2.5-0.6s-1.4-1-1.8-1.7C96.8,27.7,96.6,26.8,96.6,25.7z M99.2,25.8
	c0,0.9,0.2,1.7,0.7,2.2c0.5,0.5,1,0.8,1.7,0.8s1.2-0.3,1.7-0.8c0.4-0.5,0.7-1.2,0.7-2.2c0-0.9-0.2-1.7-0.7-2.2
	c-0.4-0.5-1-0.8-1.7-0.8s-1.2,0.3-1.7,0.8C99.4,24.1,99.2,24.9,99.2,25.8z M116.8,30.6h-2.3v-1.4c-0.4,0.5-0.8,1-1.4,1.2
	s-1.1,0.4-1.6,0.4c-1.1,0-2-0.4-2.8-1.3c-0.8-0.9-1.2-2.1-1.2-3.7c0-1.6,0.4-2.8,1.1-3.7c0.8-0.8,1.7-1.3,2.9-1.3
	c1.1,0,2,0.4,2.8,1.3v-4.7h2.5V30.6z M110.1,25.6c0,1,0.1,1.8,0.4,2.2c0.4,0.7,1,1,1.7,1c0.6,0,1.1-0.2,1.5-0.7
	c0.4-0.5,0.6-1.2,0.6-2.2c0-1.1-0.2-1.9-0.6-2.4s-0.9-0.7-1.5-0.7c-0.6,0-1.1,0.2-1.5,0.7C110.3,24,110.1,24.7,110.1,25.6z
	 M120.8,24l-2.3-0.4c0.3-0.9,0.7-1.6,1.3-2c0.6-0.4,1.6-0.7,2.8-0.7c1.1,0,2,0.1,2.5,0.4s0.9,0.6,1.2,1s0.3,1.2,0.3,2.3l0,2.9
	c0,0.8,0,1.5,0.1,1.9c0.1,0.4,0.2,0.8,0.5,1.3h-2.5c-0.1-0.2-0.1-0.4-0.2-0.7c0-0.1-0.1-0.2-0.1-0.3c-0.4,0.4-0.9,0.7-1.4,0.9
	c-0.5,0.2-1,0.3-1.6,0.3c-1,0-1.8-0.3-2.3-0.8s-0.8-1.2-0.8-2c0-0.5,0.1-1,0.4-1.4c0.3-0.4,0.6-0.7,1.1-1s1.1-0.4,2-0.6
	c1.2-0.2,2-0.4,2.5-0.6v-0.3c0-0.5-0.1-0.8-0.4-1c-0.2-0.2-0.7-0.3-1.4-0.3c-0.4,0-0.8,0.1-1.1,0.3C121.2,23.2,121,23.5,120.8,24z
	 M124.2,26c-0.3,0.1-0.8,0.2-1.5,0.4c-0.7,0.2-1.2,0.3-1.4,0.4c-0.3,0.2-0.5,0.5-0.5,0.9c0,0.4,0.1,0.7,0.4,0.9s0.6,0.4,1,0.4
	c0.5,0,0.9-0.2,1.3-0.5c0.3-0.2,0.5-0.5,0.6-0.8c0.1-0.2,0.1-0.6,0.1-1.2V26z"/>
<g id="_x30_">
	<linearGradient id="SVGID_1_" gradientUnits="userSpaceOnUse" x1="139.2523" y1="19.4628" x2="134.0633" y2="19.4628">
		<stop  offset="0" style="stop-color:#F0A228"/>
		<stop  offset="1" style="stop-color:#F6EB74"/>
	</linearGradient>
	<path class="st2" d="M134.6,23.9L134.6,23.9l3.8-0.7v-8.1c-0.3,0-0.6-0.1-0.9-0.1L134.6,23.9z"/>
	<path class="st3" d="M138.5,15.1v8.1l3.9,0.7l-2.9-9C139.1,15.1,138.8,15.1,138.5,15.1z"/>
	<linearGradient id="SVGID_2_" gradientUnits="userSpaceOnUse" x1="142.6563" y1="17.6408" x2="139.722" y2="20.6794">
		<stop  offset="0" style="stop-color:#EE7F35"/>
		<stop  offset="1" style="stop-color:#FBD62A"/>
	</linearGradient>
	<path class="st4" d="M139.4,15l2.9,9l2.7-2.8l-4.8-6.6C140,14.7,139.7,14.9,139.4,15z"/>
	<path class="st5" d="M140.3,14.5l4.8,6.6l3.5-1.7l-7.6-5.5C140.8,14.1,140.5,14.4,140.3,14.5z"/>
	<linearGradient id="SVGID_3_" gradientUnits="userSpaceOnUse" x1="145.0457" y1="14.0353" x2="145.0457" y2="20.4984">
		<stop  offset="0" style="stop-color:#AE1F24"/>
		<stop  offset="1" style="stop-color:#E54D25"/>
	</linearGradient>
	<path class="st6" d="M141,13.9l7.6,5.5l0.6-3.9l-7.7-2.5C141.3,13.3,141.1,13.6,141,13.9z"/>
	<path class="st7" d="M141.5,12.1L141.5,12.1c0,0.3-0.1,0.6-0.1,0.9l7.7,2.5l1.8-3.5H141.5z"/>
	<linearGradient id="SVGID_4_" gradientUnits="userSpaceOnUse" x1="145.2958" y1="9.9477" x2="147.1831" y2="14.1866">
		<stop  offset="0" style="stop-color:#A41D46"/>
		<stop  offset="1" style="stop-color:#E8474C"/>
	</linearGradient>
	<path class="st8" d="M141.5,12.1h9.4l-1.8-3.5l-7.7,2.5C141.5,11.4,141.5,11.8,141.5,12.1z"/>
	<path class="st9" d="M141.4,11.2l7.7-2.5l-0.6-3.9l-7.6,5.5C141.1,10.6,141.3,10.8,141.4,11.2z"/>
	<linearGradient id="SVGID_5_" gradientUnits="userSpaceOnUse" x1="142.6274" y1="5.3946" x2="146.7835" y2="9.5506">
		<stop  offset="0" style="stop-color:#85266B"/>
		<stop  offset="1" style="stop-color:#E73864"/>
	</linearGradient>
	<path class="st10" d="M141,10.3l7.6-5.5L145.1,3l-4.8,6.6C140.5,9.8,140.8,10,141,10.3z"/>
	<path class="st11" d="M140.3,9.6l4.8-6.6l-2.7-2.8l-2.9,9C139.7,9.3,140,9.4,140.3,9.6z"/>
	<linearGradient id="SVGID_6_" gradientUnits="userSpaceOnUse" x1="138.5112" y1="4.7198" x2="142.9795" y2="4.7198">
		<stop  offset="0" style="stop-color:#612D7E"/>
		<stop  offset="1" style="stop-color:#B13289"/>
	</linearGradient>
	<path class="st12" d="M139.4,9.2l2.9-9l-3.9,0.7v8.1C138.8,9.1,139.1,9.1,139.4,9.2z"/>
	<path class="st13" d="M138.5,9.1V0.9l-3.8-0.7l2.9,9C137.9,9.1,138.2,9.1,138.5,9.1z"/>
	<linearGradient id="SVGID_7_" gradientUnits="userSpaceOnUse" x1="134.7581" y1="6.1089" x2="137.5255" y2="3.0354">
		<stop  offset="0" style="stop-color:#2A5082"/>
		<stop  offset="1" style="stop-color:#1B6CB1"/>
	</linearGradient>
	<path class="st14" d="M137.6,9.2l-2.9-9L131.9,3l4.8,6.6C137,9.4,137.3,9.3,137.6,9.2z"/>
	<path class="st15" d="M136.7,9.6L131.9,3l-3.5,1.7l7.6,5.5C136.2,10,136.5,9.8,136.7,9.6z"/>
	<linearGradient id="SVGID_8_" gradientUnits="userSpaceOnUse" x1="131.9986" y1="9.8997" x2="131.4216" y2="4.4099">
		<stop  offset="0" style="stop-color:#1D5F9E"/>
		<stop  offset="1" style="stop-color:#108BC9"/>
	</linearGradient>
	<path class="st16" d="M136,10.3l-7.6-5.5l-0.6,3.9l7.7,2.5C135.7,10.8,135.9,10.6,136,10.3z"/>
	<path class="st15" d="M135.6,11.2l-7.7-2.5l-1.8,3.5h9.4C135.5,11.8,135.5,11.4,135.6,11.2z"/>
	<linearGradient id="SVGID_9_" gradientUnits="userSpaceOnUse" x1="131.9144" y1="14.4833" x2="129.5613" y2="9.6589">
		<stop  offset="0" style="stop-color:#167BBD"/>
		<stop  offset="1" style="stop-color:#31A2DB"/>
	</linearGradient>
	<path class="st17" d="M135.5,12.1H126l1.8,3.5l7.7-2.5C135.5,12.7,135.5,12.4,135.5,12.1L135.5,12.1z"/>
	<path class="st18" d="M137.6,15c-0.3-0.1-0.6-0.2-0.8-0.4l-4.8,6.6l2.7,2.8L137.6,15z"/>
	<g>
		<path class="st19" d="M127.9,16c-0.2,0.1-0.4,0-0.5-0.3c-0.1-0.2,0-0.4,0.3-0.5c0,0,12.1-3.7,12.1-3.7c0.1,0,0.2,0,0.2,0.1
			c0,0.1,0,0.2-0.1,0.2C139.9,11.8,127.9,16,127.9,16z"/>
	</g>
	<g>
		<path class="st20" d="M132.2,21.5c-0.1,0.2-0.4,0.2-0.6,0.1c-0.2-0.1-0.2-0.4-0.1-0.6c0,0,7.6-10.1,7.6-10.1
			c0.1-0.1,0.2-0.1,0.2,0c0.1,0.1,0.1,0.2,0,0.2C139.5,11.1,132.2,21.5,132.2,21.5z"/>
	</g>
</g>
</svg>
