<svg version="1.0" id="icon" xmlns="http://www.w3.org/2000/svg" xmlns:xlink="http://www.w3.org/1999/xlink" x="0px" y="0px"
	 viewBox="0 0 71 58" style="enable-background:new 0 0 71 58;" xml:space="preserve">
<style type="text/css">
	.st0{fill:#108BC9;}
</style>
<path id="stolen" class="st0" d="M45.5,12.3L42.8,15c-2-1.9-4.6-3-7.3-3c-2.7,0-5.3,1-7.3,2.9l-2.7-2.7C31.1,6.9,40,6.9,45.5,12.3
	L45.5,12.3z M50.8,7c-8.5-8.3-22.1-8.3-30.6,0l2.7,2.7c7-6.8,18.2-6.8,25.2,0L50.8,7L50.8,7z M14.8,25.2c-5.1,0.1-9.3,4.2-9.4,9.3H8
	c0-1.8,0.8-3.5,2-4.8c1.3-1.3,3-2,4.8-2V25.2L14.8,25.2z M14.8,20.3C6.9,20.3,0.6,26.7,0.5,34.6H3c0.1-6.5,5.3-11.7,11.8-11.8V20.3
	L14.8,20.3z M65.6,34.6c-0.1-5.1-4.2-9.3-9.3-9.4v2.5c1.8,0,3.5,0.8,4.8,2c1.3,1.3,2,3,2,4.8L65.6,34.6L65.6,34.6z M70.5,34.6
	c-0.1-7.9-6.4-14.2-14.3-14.3v2.5c6.4,0.1,11.7,5.3,11.8,11.8H70.5L70.5,34.6z M54.9,35.4c-0.1,0-0.2,0.1-0.2,0.1c0,0.1,0,0.2,0,0.2
	l2.6,3.5c0.5,0.6,0.7,1.4,0.7,2.1l-8.8,0.1c-1,0.1-2.5,4.1-2.3,4.6c0.1,0.2,0.3,0.3,0.5,0.3L58,46l-1,9.3c0,0.7-0.6,1.3-1.4,1.3
	h-5.1c-0.7,0-1.3-0.5-1.4-1.2L48.9,53H22.1l-0.3,2.3c-0.1,0.7-0.7,1.2-1.4,1.2h-5.1c-0.7,0-1.3-0.6-1.4-1.3L13,46l10.6,0.4
	c0.2,0,0.4-0.1,0.5-0.3c0.2-0.5-1.3-4.5-2.3-4.6L13,41.4c0-0.8,0.2-1.5,0.7-2.1l2.6-3.5c0-0.1,0.1-0.2,0-0.2c0-0.1-0.1-0.1-0.2-0.1
	l-3.3-0.2c-0.2,0-0.4-0.1-0.6-0.3c-0.1-0.2-0.2-0.4-0.2-0.6l0.1-1c0.1-0.5,0.5-1,1-1l2.5-0.3c0.3,0,0.7,0.1,0.9,0.3
	c0.2,0.2,0.4,0.5,0.4,0.9v1c0,0.1,0,0.1,0.1,0.1c0,0,0,0,0.1,0c0,0.1,0.2,0.1,0.6,0.2l4-9.9c0.1-0.3,0.3-0.6,0.5-0.8
	c0.5-0.5,1.2-1.2,13.3-1.2c12.1,0,12.7,0.7,13.3,1.2c0.2,0.2,0.4,0.5,0.5,0.8l3.3,8.3l0.7,1.6c0.4-0.1,0.6-0.1,0.6-0.2
	c0,0,0,0,0.1,0c0.1,0,0.1-0.1,0.1-0.1v-1c0-0.3,0.1-0.6,0.4-0.9c0.2-0.2,0.6-0.3,0.9-0.3l2.5,0.3c0.5,0.1,1,0.5,1,1l0.1,1
	c0,0.2,0,0.4-0.2,0.6c-0.1,0.2-0.4,0.3-0.6,0.3L54.9,35.4z M22.5,32.5c2.4,0.1,7.2,0.2,13,0.2s10.6-0.1,13-0.2l-2-6.3
	c-1.4-0.2-5.5-0.4-11-0.4c-5.5,0-9.6,0.2-11,0.4L22.5,32.5z M43.7,29.6c0-1.4-1.1-2.5-2.4-2.5c-1.4,0-2.5,1.1-2.5,2.4
	c0,1.4,1.1,2.5,2.4,2.5C42.6,32,43.7,31,43.7,29.6z"/>
</svg>
